<?xml version="1.0" standalone="no"?>
<!DOCTYPE svg PUBLIC "-//W3C//DTD SVG 20010904//EN"
 "http://www.w3.org/TR/2001/REC-SVG-20010904/DTD/svg10.dtd">
<svg version="1.0" xmlns="http://www.w3.org/2000/svg"
 width="700.000000pt" height="700.000000pt" viewBox="0 0 700.000000 700.000000"
 preserveAspectRatio="xMidYMid meet">
<metadata>
Created by potrace 1.14, written by Peter Selinger 2001-2017
</metadata>
<g transform="translate(0.000000,700.000000) scale(0.100000,-0.100000)"
fill="#000000" stroke="none">
<path d="M623 5506 c-8 -12 -8 -795 0 -802 5 -5 645 -8 888 -5 l36 1 0 405 c0
286 -3 405 -11 405 -243 5 -909 3 -913 -4z"/>
<path d="M1712 5110 l0 -398 433 -1 c450 0 509 -4 613 -43 124 -46 250 -141
299 -225 78 -133 83 -357 12 -508 -38 -81 -144 -176 -258 -231 -155 -75 -159
-76 -616 -80 -225 -1 -424 -3 -441 -3 l-30 -1 0 -389 0 -389 488 1 c346 0 515
4 581 13 483 68 935 381 1113 770 88 194 128 474 100 705 -44 366 -253 689
-582 902 -203 131 -493 238 -714 262 -30 3 -267 8 -527 10 l-471 4 0 -399z"/>
<path d="M3356 5488 c3 -5 24 -18 47 -29 68 -35 207 -128 272 -182 200 -168
331 -351 395 -549 6 -21 17 -39 23 -39 7 -1 82 -2 167 -3 85 -1 160 -4 165 -8
6 -4 10 -110 9 -288 0 -154 3 -283 7 -286 7 -4 63 30 254 151 434 276 672 417
714 424 25 4 283 7 574 6 l527 0 -2 405 -3 405 -1577 0 c-867 1 -1574 -3
-1572 -7z"/>
<path d="M1082 4148 l-463 -232 3 -55 3 -56 465 0 465 0 3 288 c1 158 -1 287
-5 287 -5 -1 -216 -105 -471 -232z"/>
<path d="M5274 3836 c-29 -19 -222 -141 -430 -271 -209 -130 -386 -245 -395
-255 -13 -16 -16 -40 -15 -134 1 -64 5 -118 8 -121 3 -3 206 -7 452 -8 440 -2
446 -2 447 18 5 142 3 352 -3 349 -4 -3 -8 0 -8 5 0 6 4 11 8 11 12 0 9 433
-3 437 -6 2 -33 -12 -61 -31z"/>
<path d="M620 2510 l0 -1110 468 2 467 3 0 1105 0 1105 -467 3 -468 2 0 -1110z"/>
<path d="M4436 2852 c-3 -9 -5 -339 -4 -733 l1 -716 453 -1 c250 0 454 3 455
6 4 27 3 489 -1 543 -3 38 -2 69 3 69 4 0 3 9 -3 20 -6 11 -7 20 -3 20 10 0
10 291 0 308 -5 6 -5 12 0 12 4 0 8 109 7 243 l0 242 -452 2 c-419 2 -451 1
-456 -15z"/>
</g>
</svg>
