<svg xmlns="http://www.w3.org/2000/svg" version="1.0" viewBox="0 0 512 512">
  <path d="M157.9 82.4c-.4.4-2.9.9-5.5 1.2-6 .5-9.7 1.1-10.4 1.4l-1.5.5c-.5.1-1.2.3-1.5.4-.3.1-1.5.4-2.6.6-1.2.3-3.2.9-4.5 1.4-1.3.5-2.7.9-3.2 1-1.1.1-11.1 5.3-11.7 6-.3.3-3 2.3-6.1 4.4-7.2 4.8-23.9 22.1-23.9 24.7 0 .6-.4 1-1 1-.5 0-1 .6-1 1.4 0 .8-.6 2.1-1.4 2.8-1.6 1.7-4.9 7.8-4.1 7.8.3 0 0 1-.7 2.2-.7 1.3-1.3 2.5-1.4 2.8 0 .3-.4 1.3-.8 2.2-.4.9-.8 2.2-1 3-.1.7-.5 1.8-.9 2.4-.3.6-.9 2.9-1.2 5-.4 2.2-.9 5.2-1.2 6.9-.8 3.9-.8 31.8 0 37 .6 4.1 1.4 8.4 2.1 12 .3 1.1.8 3.6 1.1 5.5.4 1.9 1.2 4.1 1.7 4.7.6.7.8 1.3.5 1.3-.5 0 1.3 6 3 10 .3.8.7 1.7.8 2 2.6 7.4 10.3 23.6 15.1 31.5 1.3 2.2 2.7 4.7 3.1 5.5.3.8.9 1.7 1.2 2 .4.3 2.7 3.6 5.1 7.5 2.5 3.8 5 7.7 5.7 8.5 13.3 17 19.5 24.6 28.9 35 24 26.8 58.5 58.2 101.5 92.2l14.5 11.6 19.6-15.7c70.2-56 115.2-103 140-146.1 7.4-12.8 10.2-18.5 13.7-27.5.5-1.1 1.3-3.1 2-4.5 1.1-2.6 4-10.6 4.1-11.5 0-.3 0-.6.1-.8 0-.1.2-.9.4-1.7.7-2.7 1.5-5.9 2.1-8.3.6-2.3.9-3.8 1.9-9.7 1.9-10.8 1.9-34.7.1-43-1.9-8.3-2.4-10.4-2.6-10.8-.2-.1-.4-.7-.5-1.2-.1-.6-.4-1.2-.5-1.5-.1-.3-.4-1-.5-1.5-.1-.6-.4-1.2-.5-1.5-.1-.3-.3-.9-.4-1.3-.3-2.4-9.4-17.8-14-23.8-5.1-6.8-20-20.3-22.3-20.4-.6 0-1.3-.4-1.5-.8-.3-.9-15.1-8.3-17.1-8.6-.6-.1-1.6-.4-2.2-.8-1.6-1-7.2-2.1-18-3.6-6.4-.9-17.6-.9-24 0-10.7 1.5-12.8 1.9-13.9 2.5-.6.4-1.8.9-2.7 1-.9.1-2.9.8-4.5 1.4-1.6.7-3.1 1.3-3.4 1.3-.9.2-14.5 7.1-15 7.7-.3.3-2.3 1.6-4.5 2.9-2.2 1.3-5.7 4-7.8 6-2.1 1.9-4.4 3.8-5.1 4.2-.7.4-3.9 3.9-7.2 7.9-3.2 3.9-6.7 8-7.6 9.1-1 1.1-2 2.9-2.3 3.9-.4 1.1-1.1 1.9-1.6 1.9s-.9.6-.9 1.4c0 .8-.8 2.4-1.8 3.6l-1.8 2.3-4.1-6.9c-7-11.8-15.7-21.2-30.6-33-.9-.8-2.2-1.4-2.7-1.4-.6 0-1-.5-1-1 0-.6-.6-1-1.4-1-.8 0-2.1-.6-2.8-1.4-1.7-1.7-7.8-4.9-7.8-4.1 0 .4-1.2-.1-2.7-.9-2.4-1.2-4.5-2.1-7.3-3.1-.3-.1-1.2-.5-2-.8-.8-.4-2.8-.9-4.5-1.2-1.6-.4-4.1-.9-5.5-1.2-7.1-1.4-25.3-2.8-26.1-1.9zm8.9 2.3c-1 .2-2.6.2-3.5 0-1-.3-.2-.5 1.7-.5s2.7.2 1.8.5zm184 0c-1 .2-2.6.2-3.5 0-1-.3-.2-.5 1.7-.5s2.7.2 1.8.5zm-198.1.9c-.3.3-1.2.4-1.9.1-.8-.3-.5-.6.6-.6 1.1-.1 1.7.2 1.3.5zm27 0c-.3.3-1.2.4-1.9.1-.8-.3-.5-.6.6-.6 1.1-.1 1.7.2 1.3.5zm184 0c-.3.3-1.2.4-1.9.1-.8-.3-.5-.6.6-.6 1.1-.1 1.7.2 1.3.5zm42.4 18.1c1.3 1.6 1.2 1.7-.3.4-1-.7-1.8-1.5-1.8-1.7 0-.8.8-.3 2.1 1.3zm-299.1.7c0 .2-.8 1-1.7 1.7-1.6 1.3-1.7 1.2-.4-.4 1.3-1.6 2.1-2.1 2.1-1.3zm180 2c0 .2-.8 1-1.7 1.7-1.6 1.3-1.7 1.2-.4-.4 1.3-1.6 2.1-2.1 2.1-1.3zm127 4.1c1.9 1.9 3.2 3.5 2.9 3.5-.3 0-2-1.6-3.9-3.5s-3.2-3.5-2.9-3.5c.3 0 2 1.6 3.9 3.5zM235.5 114c2.7 2.7 4.7 5 4.4 5-.3 0-2.7-2.3-5.4-5-2.7-2.8-4.7-5-4.4-5 .3 0 2.7 2.2 5.4 5zM96 115.4c0 .2-.8 1-1.7 1.7-1.6 1.3-1.7 1.2-.4-.4 1.3-1.6 2.1-2.1 2.1-1.3zm177 5c0 .2-.8 1-1.7 1.7-1.6 1.3-1.7 1.2-.4-.4 1.3-1.6 2.1-2.1 2.1-1.3zm-15.5 23.4c-.3.3-1.1 0-1.8-.7-.9-1-.8-1.1.6-.5 1 .3 1.5.9 1.2 1.2zm182.2 22.4c-.3.8-.6.5-.6-.6-.1-1.1.2-1.7.5-1.3.3.3.4 1.2.1 1.9zm-366 4c-.3.7-.5.2-.5-1.2s.2-1.9.5-1.3c.2.7.2 1.9 0 2.5zm0 21.5c-.3 1-.5.4-.5-1.2 0-1.7.2-2.4.5-1.8.2.7.2 2.1 0 3zm366 3.5c-.3.8-.6.5-.6-.6-.1-1.1.2-1.7.5-1.3.3.3.4 1.2.1 1.9zm-1 7c-.3.8-.6.5-.6-.6-.1-1.1.2-1.7.5-1.3.3.3.4 1.2.1 1.9zm-314.6 99.5c1.3 1.6 1.2 1.7-.3.4-1.7-1.3-2.2-2.1-1.4-2.1.2 0 1 .8 1.7 1.7zm4 5c1.3 1.6 1.2 1.7-.3.4-1-.7-1.8-1.5-1.8-1.7 0-.8.8-.3 2.1 1.3zm255.9 2.7c0 .2-.8 1-1.7 1.7-1.6 1.3-1.7 1.2-.4-.4 1.3-1.6 2.1-2.1 2.1-1.3zM133.5 313c1 1.1 1.6 2 1.3 2-.3 0-1.3-.9-2.3-2-1-1.1-1.6-2-1.3-2 .3 0 1.3.9 2.3 2zm244.5 3.3c0 .2-1 1.2-2.2 2.3l-2.3 1.9 1.9-2.3c1.8-2.1 2.6-2.7 2.6-1.9zM140.5 321c1 1.1 1.6 2 1.3 2-.3 0-1.3-.9-2.3-2-1-1.1-1.6-2-1.3-2 .3 0 1.3.9 2.3 2zm228.5 5.3c0 .2-1.9 2.1-4.2 4.2l-4.3 4 4-4.3c3.6-3.9 4.5-4.7 4.5-3.9zM161.5 343c7.1 7.1 12.7 13 12.5 13-.3 0-6.4-5.9-13.5-13-7.1-7.2-12.7-13-12.5-13 .3 0 6.4 5.8 13.5 13zm182.5 8.3c0 .1-2.4 2.5-5.2 5.2l-5.3 5 5-5.3c4.6-4.8 5.5-5.7 5.5-4.9zm-159.4 13.9 2.9 3.3-3.2-2.9c-3.1-2.8-3.8-3.6-3-3.6.2 0 1.6 1.5 3.3 3.2zm144.4.1c0 .2-1.5 1.6-3.2 3.3l-3.3 2.9 2.9-3.3c2.8-3 3.6-3.7 3.6-2.9zM194.5 374c1 1.1 1.6 2 1.3 2-.3 0-1.3-.9-2.3-2-1-1.1-1.6-2-1.3-2 .3 0 1.3.9 2.3 2zm124.5.3c0 .2-1 1.2-2.2 2.3l-2.3 1.9 1.9-2.3c1.8-2.1 2.6-2.7 2.6-1.9zM202.5 381c1 1.1 1.6 2 1.3 2-.3 0-1.3-.9-2.3-2-1-1.1-1.6-2-1.3-2 .3 0 1.3.9 2.3 2zm108.5.3c0 .2-1 1.2-2.2 2.3l-2.3 1.9 1.9-2.3c1.8-2.1 2.6-2.7 2.6-1.9zM209.5 387c1 1.1 1.6 2 1.3 2-.3 0-1.3-.9-2.3-2-1-1.1-1.6-2-1.3-2 .3 0 1.3.9 2.3 2zm94.5.4c0 .2-.8 1-1.7 1.7-1.6 1.3-1.7 1.2-.4-.4 1.3-1.6 2.1-2.1 2.1-1.3zm-87.9 5.3c1.3 1.6 1.2 1.7-.3.4-1.7-1.3-2.2-2.1-1.4-2.1.2 0 1 .8 1.7 1.7zm81.9-.3c0 .2-.8 1-1.7 1.7-1.6 1.3-1.7 1.2-.4-.4 1.3-1.6 2.1-2.1 2.1-1.3zm-75.9 5.3c1.3 1.6 1.2 1.7-.3.4-1-.7-1.8-1.5-1.8-1.7 0-.8.8-.3 2.1 1.3zm69.9-.3c0 .2-.8 1-1.7 1.7-1.6 1.3-1.7 1.2-.4-.4 1.3-1.6 2.1-2.1 2.1-1.3zm-64.9 4.3c1.3 1.6 1.2 1.7-.3.4-1.7-1.3-2.2-2.1-1.4-2.1.2 0 1 .8 1.7 1.7zm20 16c1.3 1.6 1.2 1.7-.3.4-1.7-1.3-2.2-2.1-1.4-2.1.2 0 1 .8 1.7 1.7zm19.9-.3c0 .2-.8 1-1.7 1.7-1.6 1.3-1.7 1.2-.4-.4 1.3-1.6 2.1-2.1 2.1-1.3z"/>
</svg>