<svg xmlns="http://www.w3.org/2000/svg" viewBox="0 0 20 20">
  <path d="m3.64 15-.71.71a1 1 0 0 0 0 1.41 1 1 0 0 0 1.41 0l.71-.71A1 1 0 0 0 3.64 15ZM3 10a1 1 0 0 0-1-1H1a1 1 0 1 0 0 2h1a1 1 0 0 0 1-1Zm7-7a1 1 0 0 0 1-1V1a1 1 0 0 0-2 0v1a1 1 0 0 0 1 1ZM3.64 5.05a1 1 0 0 0 1.41 0 1 1 0 0 0 0-1.41l-.71-.71a1 1 0 0 0-1.41 1.41l.71.71Zm12 .29a1 1 0 0 0 .7-.29l.71-.71a1 1 0 1 0-1.41-1.41l-.64.71a1 1 0 0 0 0 1.41 1 1 0 0 0 .66.29h-.02ZM19 9h-1a1 1 0 0 0 0 2h1a1 1 0 0 0 0-2Zm-9 8a1 1 0 0 0-1 1v1a1 1 0 0 0 2 0v-1a1 1 0 0 0-1-1Zm6.36-2A1 1 0 0 0 15 16.36l.71.71a1 1 0 0 0 1.41 0 1 1 0 0 0 0-1.41l-.76-.66ZM10 4.5a5.5 5.5 0 1 0 5.5 5.5A5.51 5.51 0 0 0 10 4.5Zm0 9a3.5 3.5 0 1 1 0-7 3.5 3.5 0 0 1 0 7Z"/>
</svg>